<?xml version="1.0" standalone="no"?>
<!DOCTYPE svg PUBLIC "-//W3C//DTD SVG 20010904//EN"
 "http://www.w3.org/TR/2001/REC-SVG-20010904/DTD/svg10.dtd">
<svg version="1.0" xmlns="http://www.w3.org/2000/svg"
 width="682.000000pt" height="682.000000pt" viewBox="0 0 682.000000 682.000000"
 preserveAspectRatio="xMidYMid meet">
<metadata>
Created by potrace 1.14, written by Peter Selinger 2001-2017
</metadata>
<g transform="translate(0.000000,682.000000) scale(0.100000,-0.100000)"
fill="#000000" stroke="none">
<path d="M3186 4505 c-22 -58 -43 -108 -48 -111 -4 -3 -8 -13 -8 -22 0 -9 -6
-28 -13 -42 -7 -14 -24 -54 -37 -90 -13 -36 -26 -69 -30 -75 -4 -5 -26 -59
-50 -120 -23 -60 -50 -128 -59 -150 -19 -43 -32 -76 -81 -200 -17 -44 -39 -97
-49 -118 l-17 -39 -65 67 c-35 37 -104 108 -154 159 -49 51 -130 134 -179 185
l-88 92 -24 -33 c-13 -17 -24 -38 -24 -45 0 -7 -4 -13 -9 -13 -5 0 -13 -10
-17 -22 -4 -13 -9 -25 -13 -28 -3 -3 -13 -17 -21 -32 -55 -102 -444 -748 -449
-748 -4 0 -21 19 -38 43 -16 23 -55 76 -85 117 -30 41 -85 118 -123 170 -100
140 -98 138 -119 76 -10 -28 -22 -60 -27 -71 -4 -11 -15 -38 -23 -60 -7 -22
-35 -98 -61 -170 -26 -71 -60 -166 -75 -210 -16 -44 -40 -111 -55 -150 -14
-38 -44 -122 -67 -185 -22 -63 -46 -128 -54 -145 -7 -16 -29 -77 -49 -135 -19
-58 -39 -114 -44 -125 -8 -19 -13 -35 -51 -138 -21 -59 -18 -55 -76 -72 -27
-7 -87 -27 -134 -44 -47 -17 -86 -31 -87 -31 -2 -1 -18 -7 -37 -15 -20 -8 -40
-15 -45 -15 -5 0 -22 -7 -38 -15 -15 -8 -71 -31 -123 -51 -123 -45 -164 -64
-157 -70 2 -3 31 4 63 14 76 25 277 75 348 86 15 3 72 15 125 26 164 36 232
49 336 65 55 8 138 22 185 30 47 8 114 17 150 20 36 3 90 10 120 15 30 5 93
12 140 15 47 3 101 7 120 10 149 19 541 38 790 37 199 0 610 -16 700 -27 19
-2 64 -7 100 -10 128 -12 166 -16 220 -25 30 -5 82 -11 115 -15 33 -3 96 -12
140 -20 44 -8 103 -17 130 -20 28 -2 66 -7 85 -10 89 -12 177 -19 390 -32 169
-10 796 -10 950 0 63 4 156 10 205 13 90 5 153 11 210 19 17 2 66 7 110 10 44
4 118 13 165 20 47 8 110 17 140 20 30 3 80 10 110 15 30 5 75 12 100 15 62 8
212 36 230 42 17 7 -29 19 -105 28 -27 3 -63 10 -80 15 -16 5 -66 13 -110 19
-44 6 -89 12 -101 15 -11 2 -47 7 -80 10 -127 13 -121 10 -164 100 -47 97
-138 290 -173 366 -51 112 -91 198 -148 318 -33 68 -59 125 -59 127 0 1 -26
58 -59 126 -144 303 -161 341 -161 350 0 5 -4 9 -9 9 -9 0 -82 -111 -94 -143
-4 -10 -22 -42 -41 -70 -18 -29 -65 -105 -104 -169 l-70 -118 -25 53 c-58 121
-157 327 -177 373 -13 27 -41 87 -63 134 -21 47 -51 110 -64 140 -14 30 -42
91 -63 135 -21 44 -59 125 -84 180 -26 55 -54 114 -63 132 l-17 32 -37 -62
c-20 -34 -45 -75 -56 -92 -10 -16 -70 -117 -133 -222 -63 -106 -132 -221 -153
-255 -21 -35 -42 -73 -47 -85 -5 -13 -14 -23 -19 -23 -5 0 -49 50 -97 111 -49
61 -94 116 -100 123 -32 35 -354 435 -354 441 0 3 -8 13 -17 23 -39 41 -191
222 -243 291 -33 43 -50 61 -58 61 -4 0 -25 -48 -46 -105z"/>
<path d="M134 1814 c-18 -14 -18 -14 6 -3 31 14 36 19 24 19 -6 0 -19 -7 -30
-16z"/>
</g>
</svg>
